<svg xmlns="http://www.w3.org/2000/svg" viewBox="0 0 32 32" role="img" aria-label="Discord">
  <path fill="#5865f2" d="M25.2 7.4a22 22 0 0 0-5.4-1.7l-.3.5a20 20 0 0 0-6.9 0l-.3-.5A21 21 0 0 0 6.8 7.4 22 22 0 0 0 3 21.1a22 22 0 0 0 6.8 3.4l.7-1.1a15 15 0 0 1-2.2-1l.5-.4a16 16 0 0 0 14.3 0l.5.4a15 15 0 0 1-2.2 1l.7 1.1a22 22 0 0 0 6.8-3.4 22 22 0 0 0-3.7-13.7zM12.1 18.4c-1.3 0-2.4-1.2-2.4-2.7s1-2.7 2.4-2.7c1.3 0 2.4 1.2 2.4 2.7s-1 2.7-2.4 2.7zm7.8 0c-1.3 0-2.4-1.2-2.4-2.7s1-2.7 2.4-2.7c1.3 0 2.4 1.2 2.4 2.7s-1 2.7-2.4 2.7z"/>
</svg>
