<svg xmlns="http://www.w3.org/2000/svg" viewBox="0 0 32 32" role="img" aria-label="GitHub">
  <path fill="#181717" d="M16 3C8.8 3 3 8.8 3 16c0 5.7 3.7 10.6 8.9 12.3.7.1.9-.3.9-.6v-2.3c-3.6.8-4.4-1.5-4.4-1.5-.6-1.5-1.5-1.9-1.5-1.9-1.2-.8.1-.8.1-.8 1.3.1 2 1.4 2 1.4 1.2 2 3.1 1.4 3.9 1.1.1-.8.5-1.4.8-1.7-2.9-.3-5.9-1.4-5.9-6.4 0-1.4.5-2.6 1.4-3.5-.1-.3-.6-1.7.1-3.5 0 0 1.1-.3 3.6 1.3 1-.3 2.2-.4 3.3-.4 1.1 0 2.2.1 3.3.4 2.5-1.7 3.6-1.3 3.6-1.3.7 1.8.3 3.2.1 3.5.9.9 1.4 2.1 1.4 3.5 0 5-3 6.1-5.9 6.4.5.4.9 1.2.9 2.4v3.6c0 .4.2.8.9.6C25.3 26.6 29 21.7 29 16 29 8.8 23.2 3 16 3z"/>
</svg>
