<svg xmlns="http://www.w3.org/2000/svg" viewBox="0 0 32 32" role="img" aria-label="Linear">
  <path fill="#5e6ad2" d="M3 19c.4 4.6 4.4 8.6 9 9L3 19zm-.3-3.6L16.6 29.3c.7-.1 1.4-.2 2-.4L3.1 13.4c-.2.6-.3 1.3-.4 2zm1.4-4.6 16.1 16.1c.6-.3 1.1-.6 1.6-.9L5 9.2c-.3.6-.6 1.1-.9 1.6zm3-4.2a13 13 0 0 1 17.3 18c-.4.4-.8.8-1.3 1.2L6.9 7.9c-.2.2-.5.4-.8.7zM6 12.2C5.9 10 6.6 7.8 8.2 6.2A13 13 0 0 1 25.8 23.8c-1.6 1.6-3.7 2.3-6 2.2L6 12.2z" opacity=".2"/>
  <path fill="#5e6ad2" d="M16 2C8.3 2 2 8.3 2 16s6.3 14 14 14 14-6.3 14-14S23.7 2 16 2z"/>
  <path fill="#fff" d="M3 19c.4 4.6 4.4 8.6 9 9zm-.3-3.6L16.6 29.3c.7-.1 1.4-.2 2-.4L3.1 13.4c-.2.6-.3 1.3-.4 2zm1.4-4.6 16.1 16.1c.6-.3 1.1-.6 1.6-.9L5 9.2c-.3.6-.6 1.1-.9 1.6zm3-4.2L24.6 23.9c.5-.4.9-.8 1.3-1.2L8.2 5.2c-.4.4-.8.8-1.1 1.4z"/>
</svg>
